<svg width="80" height="80" viewBox="0 0 120 120" fill="none" xmlns="http://www.w3.org/2000/svg">
<g filter="url(#filter0_d_360_2277)">
<g clip-path="url(#clip0_360_2277)">
<rect x="10" y="10" width="100" height="100" rx="50" fill="#AEE6FF"/>
<mask id="mask0_360_2277" style="mask-type:alpha" maskUnits="userSpaceOnUse" x="35" y="35" width="50" height="50">
<rect x="35" y="35" width="50" height="50" fill="#D9D9D9"/>
</mask>
<g mask="url(#mask0_360_2277)">
<path d="M35 72.5V69.2188C35 67.7257 35.7639 66.5104 37.2917 65.5729C38.8194 64.6354 40.8333 64.1667 43.3333 64.1667C43.7847 64.1667 44.2188 64.1753 44.6354 64.1927C45.0521 64.2101 45.4514 64.2535 45.8333 64.3229C45.3472 65.0521 44.9826 65.816 44.7396 66.6146C44.4965 67.4132 44.375 68.2465 44.375 69.1146V72.5H35ZM47.5 72.5V69.1146C47.5 68.0035 47.8038 66.9878 48.4115 66.0677C49.0191 65.1476 49.8785 64.3403 50.9896 63.6458C52.1007 62.9514 53.4288 62.4306 54.974 62.0833C56.5191 61.7361 58.1944 61.5625 60 61.5625C61.8403 61.5625 63.533 61.7361 65.0781 62.0833C66.6233 62.4306 67.9514 62.9514 69.0625 63.6458C70.1736 64.3403 71.0243 65.1476 71.6146 66.0677C72.2049 66.9878 72.5 68.0035 72.5 69.1146V72.5H47.5ZM75.625 72.5V69.1146C75.625 68.2118 75.5122 67.3611 75.2865 66.5625C75.0608 65.7639 74.7222 65.0174 74.2708 64.3229C74.6528 64.2535 75.0434 64.2101 75.4427 64.1927C75.842 64.1753 76.25 64.1667 76.6667 64.1667C79.1667 64.1667 81.1806 64.6267 82.7083 65.5469C84.2361 66.467 85 67.691 85 69.2188V72.5H75.625ZM51.9271 68.3333H68.125C67.7778 67.6389 66.8142 67.0312 65.2344 66.5104C63.6545 65.9896 61.9097 65.7292 60 65.7292C58.0903 65.7292 56.3455 65.9896 54.7656 66.5104C53.1858 67.0312 52.2396 67.6389 51.9271 68.3333ZM43.3333 62.0833C42.1875 62.0833 41.2066 61.6753 40.3906 60.8594C39.5747 60.0434 39.1667 59.0625 39.1667 57.9167C39.1667 56.7361 39.5747 55.7465 40.3906 54.9479C41.2066 54.1493 42.1875 53.75 43.3333 53.75C44.5139 53.75 45.5035 54.1493 46.3021 54.9479C47.1007 55.7465 47.5 56.7361 47.5 57.9167C47.5 59.0625 47.1007 60.0434 46.3021 60.8594C45.5035 61.6753 44.5139 62.0833 43.3333 62.0833ZM76.6667 62.0833C75.5208 62.0833 74.5399 61.6753 73.724 60.8594C72.908 60.0434 72.5 59.0625 72.5 57.9167C72.5 56.7361 72.908 55.7465 73.724 54.9479C74.5399 54.1493 75.5208 53.75 76.6667 53.75C77.8472 53.75 78.8368 54.1493 79.6354 54.9479C80.434 55.7465 80.8333 56.7361 80.8333 57.9167C80.8333 59.0625 80.434 60.0434 79.6354 60.8594C78.8368 61.6753 77.8472 62.0833 76.6667 62.0833ZM60 60C58.2639 60 56.7882 59.3924 55.5729 58.1771C54.3576 56.9618 53.75 55.4861 53.75 53.75C53.75 51.9792 54.3576 50.4948 55.5729 49.2969C56.7882 48.099 58.2639 47.5 60 47.5C61.7708 47.5 63.2552 48.099 64.4531 49.2969C65.651 50.4948 66.25 51.9792 66.25 53.75C66.25 55.4861 65.651 56.9618 64.4531 58.1771C63.2552 59.3924 61.7708 60 60 60ZM60 55.8333C60.5903 55.8333 61.0851 55.6337 61.4844 55.2344C61.8837 54.8351 62.0833 54.3403 62.0833 53.75C62.0833 53.1597 61.8837 52.6649 61.4844 52.2656C61.0851 51.8663 60.5903 51.6667 60 51.6667C59.4097 51.6667 58.9149 51.8663 58.5156 52.2656C58.1163 52.6649 57.9167 53.1597 57.9167 53.75C57.9167 54.3403 58.1163 54.8351 58.5156 55.2344C58.9149 55.6337 59.4097 55.8333 60 55.8333Z" fill="#0288D1"/>
</g>
<mask id="mask1_360_2277" style="mask-type:alpha" maskUnits="userSpaceOnUse" x="32" y="82" width="32" height="32">
<rect x="40.7256" y="82" width="24" height="24" transform="rotate(21.3192 40.7256 82)" fill="#D9D9D9"/>
</mask>
<g mask="url(#mask1_360_2277)">
<path d="M39.8847 92.4064L42.0661 86.8169L43.9293 87.5441L43.0749 89.7333C44.2545 89.0486 45.521 88.6573 46.8742 88.5592C48.2275 88.4612 49.5407 88.6606 50.8138 89.1574C53.1427 90.0663 54.8042 91.654 55.7982 93.9205C56.7922 96.187 56.8348 98.4847 55.9259 100.814L54.0627 100.087C54.7717 98.2699 54.7404 96.4821 53.9688 94.7228C53.1973 92.9636 51.9033 91.7295 50.0867 91.0206C49.0154 90.6025 47.917 90.4601 46.7915 90.5933C45.6661 90.7266 44.6154 91.1038 43.6395 91.7248L46.2013 92.7246L45.4742 94.5877L39.8847 92.4064ZM38.8406 95.2193L40.7504 95.9646C40.3731 97.4812 40.4898 98.9357 41.1005 100.328C41.7111 101.72 42.6726 102.798 43.9852 103.56L44.3396 105.953C42.1969 105.117 40.5955 103.673 39.5352 101.622C38.4749 99.5716 38.2434 97.4372 38.8406 95.2193ZM47.7996 100.594L46.4648 97.5506L48.428 92.5202L50.2911 93.2473L48.6187 97.5325L49.414 99.3457L47.7996 100.594ZM48.7451 110.893L49.011 109.386C48.855 109.236 48.7121 109.086 48.5824 108.937C48.4527 108.788 48.3267 108.618 48.2044 108.427L46.69 108.319L46.3765 106.372L47.8114 105.859C47.8591 105.645 47.9224 105.437 48.0011 105.235C48.0799 105.033 48.1742 104.837 48.284 104.648L47.5763 103.298L49.1259 102.078L50.3131 103.024C50.5323 102.967 50.7401 102.927 50.9365 102.905C51.1328 102.884 51.3393 102.87 51.5559 102.865L52.3808 101.577L54.2439 102.304L53.978 103.811C54.134 103.961 54.2777 104.12 54.4091 104.287C54.5405 104.455 54.6596 104.631 54.7664 104.816L56.299 104.877L56.5943 106.871L55.1595 107.385C55.1117 107.599 55.0515 107.799 54.9788 107.985C54.9061 108.171 54.8148 108.359 54.705 108.549L55.4127 109.899L53.8631 111.119L52.6759 110.173C52.4567 110.23 52.2489 110.27 52.0525 110.291C51.8562 110.313 51.6497 110.327 51.4331 110.332L50.6083 111.62L48.7451 110.893ZM50.7674 108.462C51.2797 108.662 51.7896 108.65 52.2968 108.428C52.8041 108.205 53.1577 107.838 53.3576 107.326C53.5576 106.813 53.5464 106.303 53.3239 105.796C53.1014 105.289 52.734 104.935 52.2216 104.735C51.7093 104.535 51.1995 104.547 50.6922 104.769C50.1849 104.992 49.8313 105.359 49.6314 105.871C49.4314 106.384 49.4427 106.893 49.6651 107.401C49.8876 107.908 50.255 108.262 50.7674 108.462Z" fill="#29B6F6"/>
</g>
<mask id="mask2_360_2277" style="mask-type:alpha" maskUnits="userSpaceOnUse" x="65" y="75" width="39" height="39">
<rect x="65" y="85.4825" width="30" height="30" transform="rotate(-20.4517 65 85.4825)" fill="#D9D9D9"/>
</mask>
<g mask="url(#mask2_360_2277)">
<path d="M92.9119 103.09L91.9054 101.464C91.6347 101.454 91.3769 101.433 91.1319 101.402C90.8869 101.371 90.6279 101.318 90.355 101.241L88.8533 102.402L86.9396 100.848L87.8497 99.1741C87.7087 98.9154 87.5946 98.6689 87.5072 98.4346C87.4199 98.2004 87.3447 97.9393 87.2819 97.6515L85.4982 96.9826L85.9269 94.5548L87.8217 94.4485C87.9782 94.2122 88.1389 94.0022 88.3038 93.8184C88.4687 93.6346 88.6501 93.4503 88.848 93.2653L88.5442 91.3775L90.8866 90.5039L91.8931 92.1297C92.1638 92.1399 92.4234 92.1654 92.672 92.2061C92.9207 92.2468 93.1851 92.3149 93.4653 92.4105L94.9452 91.1916L96.8808 92.8045L95.9707 94.4779C96.0971 94.6976 96.2076 94.9344 96.3022 95.1881C96.3968 95.4419 96.4683 95.6932 96.5166 95.942L98.3003 96.6109L97.8716 99.0387L95.9768 99.145C95.8203 99.3812 95.6596 99.5912 95.4947 99.775C95.3298 99.9588 95.1484 100.143 94.9505 100.328L95.2543 102.216L92.9119 103.09ZM76.0782 108.033L74.8552 104.754C74.615 104.11 74.5553 103.443 74.676 102.753C74.7967 102.063 75.0953 101.462 75.5717 100.951C76.378 100.072 77.3402 99.2244 78.4585 98.4072C79.5768 97.5899 80.8874 96.901 82.3905 96.3405L82.8004 96.1876C82.9175 96.144 83.0419 96.1198 83.1736 96.1152C83.1316 97.7317 83.4179 99.2148 84.0323 100.564C84.6468 101.914 85.6066 103.057 86.9119 103.993L76.0782 108.033ZM92.7728 99.1391C93.417 98.8989 93.8829 98.4639 94.1705 97.8341C94.4582 97.2043 94.4819 96.5674 94.2417 95.9232C94.0014 95.279 93.5664 94.8131 92.9366 94.5255C92.3068 94.2378 91.6699 94.2141 91.0257 94.4543C90.3815 94.6945 89.9156 95.1295 89.628 95.7593C89.3403 96.3891 89.3166 97.0261 89.5568 97.6703C89.7971 98.3144 90.2321 98.7804 90.8619 99.068C91.4916 99.3557 92.1286 99.3794 92.7728 99.1391ZM81.9537 95.1693C80.6654 95.6498 79.3914 95.6023 78.1318 95.027C76.8722 94.4517 76.0022 93.5199 75.5218 92.2316C75.0413 90.9432 75.0887 89.6693 75.6641 88.4097C76.2394 87.1501 77.1712 86.2801 78.4595 85.7996C79.7478 85.3192 81.0218 85.3666 82.2814 85.9419C83.541 86.5172 84.411 87.4491 84.8914 88.7374C85.3719 90.0257 85.3245 91.2997 84.7492 92.5593C84.1738 93.8188 83.242 94.6889 81.9537 95.1693Z" fill="#29B6F6"/>
</g>
<mask id="mask3_360_2277" style="mask-type:alpha" maskUnits="userSpaceOnUse" x="-5" y="49" width="44" height="44">
<rect x="-0.973633" y="49" width="40" height="40" transform="rotate(5.77687 -0.973633 49)" fill="#D9D9D9"/>
</mask>
<g mask="url(#mask3_360_2277)">
<path d="M9.22896 76.2279L8.98314 73.6903C8.66548 73.5185 8.36924 73.342 8.09444 73.1606C7.81963 72.9793 7.54141 72.7627 7.25977 72.5108L4.77989 73.0137L3.40687 70.027L5.48156 68.5618C5.46264 68.1969 5.47135 67.8348 5.50769 67.4755C5.54404 67.1163 5.60803 66.7598 5.69965 66.4061L3.96047 64.555L5.90386 61.9038L8.23277 62.8932C8.55914 62.7029 8.8751 62.5464 9.18067 62.4238C9.48623 62.3011 9.81182 62.1875 10.1574 62.0828L10.9065 59.6459L14.2229 59.9814L14.4688 62.519C14.7864 62.6907 15.0827 62.8673 15.3575 63.0487C15.6323 63.23 15.9105 63.4466 16.1921 63.6985L18.672 63.1955L20.045 66.1822L17.9703 67.6475C17.9893 68.0124 17.9806 68.3745 17.9442 68.7337C17.9079 69.093 17.8439 69.4495 17.7523 69.8032L19.4914 71.6543L17.548 74.3055L15.2191 73.316C14.8928 73.5064 14.5768 73.6629 14.2712 73.7855C13.9657 73.9082 13.6401 74.0218 13.2945 74.1264L12.5454 76.5634L9.22896 76.2279ZM11.3904 71.421C12.3024 71.5133 13.116 71.2676 13.8312 70.6838C14.5464 70.1 14.9501 69.3522 15.0424 68.4402C15.1346 67.5281 14.8889 66.7146 14.3051 65.9994C13.7214 65.2842 12.9735 64.8805 12.0615 64.7882C11.1495 64.696 10.3359 64.9417 9.6207 65.5255C8.90553 66.1092 8.50182 66.8571 8.40955 67.7691C8.31728 68.6811 8.56303 69.4947 9.14678 70.2099C9.73054 70.9251 10.4784 71.3288 11.3904 71.421ZM22.2245 95.9696L21.8306 92.4118C21.3776 92.1985 20.9626 91.9541 20.5856 91.6786C20.2086 91.4032 19.8421 91.0939 19.4859 90.7507L16.0605 91.493L14.1416 87.2785L17.0296 85.2254C17.0247 84.7224 17.0473 84.2221 17.0977 83.7247C17.148 83.2272 17.226 82.7325 17.3316 82.2407L14.9133 79.6508L17.6374 75.9059L20.8448 77.3193C21.2624 77.0544 21.6835 76.8248 22.108 76.6304C22.5325 76.4361 22.9881 76.2797 23.4747 76.1615L24.5731 72.7547L29.2161 73.2244L29.61 76.7822C30.0631 76.9955 30.4781 77.2399 30.855 77.5154C31.232 77.7908 31.5986 78.1001 31.9547 78.4433L35.3802 77.7009L37.299 81.9155L34.4111 83.9686C34.416 84.4716 34.3933 84.9719 34.343 85.4693C34.2926 85.9668 34.2147 86.4615 34.1091 86.9533L36.5274 89.5432L33.8032 93.2881L30.5959 91.8747C30.1782 92.1396 29.7571 92.3692 29.3326 92.5635C28.9081 92.7579 28.4526 92.9142 27.966 93.0325L26.8675 96.4393L22.2245 95.9696ZM25.2171 89.5716C26.5989 89.7114 27.8224 89.3466 28.8875 88.4772C29.9527 87.6077 30.5551 86.4821 30.6949 85.1003C30.8347 83.7184 30.4699 82.4949 29.6005 81.4298C28.7311 80.3647 27.6054 79.7622 26.2236 79.6224C24.8418 79.4826 23.6183 79.8474 22.5531 80.7168C21.488 81.5863 20.8855 82.7119 20.7457 84.0937C20.6059 85.4756 20.9707 86.699 21.8402 87.7642C22.7096 88.8293 23.8352 89.4318 25.2171 89.5716Z" fill="#29B6F6"/>
</g>
<mask id="mask4_360_2277" style="mask-type:alpha" maskUnits="userSpaceOnUse" x="86" y="53" width="24" height="24">
<rect x="86" y="56.8837" width="20" height="20" transform="rotate(-11.1969 86 56.8837)" fill="#D9D9D9"/>
</mask>
<g mask="url(#mask4_360_2277)">
<path d="M94.55 72.1812C93.3102 72.4267 92.1659 72.2072 91.1172 71.5228C90.0685 70.8384 89.4215 69.8763 89.1761 68.6365C88.9657 67.5737 89.0984 66.5635 89.5743 65.6056C90.0501 64.6478 90.7828 63.9505 91.7725 63.514C91.865 62.1931 92.3453 61.0432 93.2134 60.0643C94.0815 59.0855 95.1627 58.4679 96.457 58.2117C98.0511 57.8962 99.5132 58.1837 100.843 59.0743C102.174 59.9649 102.997 61.2072 103.312 62.8013C104.274 62.7242 105.134 62.9751 105.893 63.5541C106.652 64.133 107.124 64.8925 107.31 65.8326C107.512 66.8545 107.327 67.7938 106.753 68.6507C106.179 69.5076 105.382 70.0372 104.36 70.2394L94.55 72.1812Z" fill="#29B6F6"/>
</g>
<mask id="mask5_360_2277" style="mask-type:alpha" maskUnits="userSpaceOnUse" x="16" y="25" width="23" height="23">
<rect x="19.1787" y="25" width="20" height="20" transform="rotate(9.14439 19.1787 25)" fill="#D9D9D9"/>
</mask>
<g mask="url(#mask5_360_2277)">
<path d="M22.5543 40.7364C21.183 40.5156 20.0947 39.8481 19.2894 38.7337C18.484 37.6193 18.1917 36.3765 18.4124 35.0053C18.6331 33.6341 19.3007 32.5458 20.4151 31.7404C21.5294 30.9351 22.7722 30.6427 24.1435 30.8635C25.2542 31.0423 26.1741 31.5104 26.9033 32.2678C27.6325 33.0253 28.0854 33.9036 28.2622 34.9027L36.7776 36.2734L36.2479 39.5644L34.6024 39.2995L34.0727 42.5905L30.7817 42.0607L31.3114 38.7698L27.7325 38.1937C27.2511 39.0868 26.5454 39.7786 25.6154 40.269C24.6853 40.7594 23.665 40.9152 22.5543 40.7364ZM23.084 37.4454C23.5365 37.5182 23.9498 37.4195 24.3239 37.1491C24.698 36.8787 24.9215 36.5173 24.9944 36.0648C25.0672 35.6123 24.9684 35.199 24.6981 34.8249C24.4277 34.4507 24.0663 34.2273 23.6137 34.1544C23.1612 34.0816 22.7479 34.1804 22.3738 34.4507C21.9997 34.7211 21.7762 35.0825 21.7034 35.535C21.6305 35.9876 21.7293 36.4009 21.9997 36.775C22.2701 37.1491 22.6315 37.3726 23.084 37.4454Z" fill="#29B6F6"/>
</g>
<mask id="mask6_360_2277" style="mask-type:alpha" maskUnits="userSpaceOnUse" x="69" y="15" width="14" height="14">
<rect x="74.9727" y="15" width="10" height="10" transform="rotate(36.677 74.9727 15)" fill="#D9D9D9"/>
</mask>
<g mask="url(#mask6_360_2277)">
<path d="M73.5078 25.3384C73.0455 24.9941 72.6764 24.5828 72.4005 24.1046C72.1246 23.6263 71.9482 23.1249 71.8714 22.6001C71.7947 22.0754 71.82 21.5444 71.9473 21.0071C72.0747 20.4699 72.3105 19.9701 72.6548 19.5079C72.9991 19.0456 73.4103 18.6765 73.8886 18.4006C74.3668 18.1247 74.8683 17.9483 75.393 17.8716C75.9178 17.7948 76.4488 17.8201 76.986 17.9474C77.5233 18.0748 78.023 18.3106 78.4853 18.6549C78.9476 18.9992 79.3167 19.4104 79.5926 19.8887C79.8685 20.3669 80.0448 20.8684 80.1216 21.3932C80.1984 21.9179 80.1731 22.4489 80.0457 22.9861C79.9184 23.5234 79.6825 24.0231 79.3383 24.4854C78.994 24.9477 78.5827 25.3168 78.1045 25.5927C77.6262 25.8686 77.1247 26.0449 76.6 26.1217C76.0753 26.1985 75.5443 26.1732 75.007 26.0458C74.4698 25.9185 73.97 25.6826 73.5078 25.3384ZM73.6838 24.4044L74.1691 23.7528C73.9853 23.6159 73.8767 23.4333 73.8433 23.2049C73.8099 22.9766 73.8616 22.7705 73.9985 22.5867L74.2474 22.2525L73.838 19.4539C73.7466 19.5417 73.6566 19.6305 73.568 19.7204C73.4794 19.8103 73.3978 19.9054 73.3231 20.0056C72.8212 20.6795 72.6029 21.4348 72.6683 22.2714C72.7336 23.108 73.0721 23.819 73.6838 24.4044ZM76.6242 25.2695C76.8269 25.23 77.0256 25.1724 77.2205 25.0967C77.4154 25.021 77.5991 24.9284 77.7717 24.8188C77.9442 24.7092 78.1059 24.585 78.2569 24.4463C78.4078 24.3076 78.5455 24.1547 78.6699 23.9876C79.0764 23.4418 79.2959 22.8303 79.3283 22.1531C79.3608 21.4759 79.1982 20.8483 78.8407 20.2704L78.7412 20.404C78.6043 20.5878 78.4217 20.6964 78.1933 20.7299C77.965 20.7633 77.7589 20.7115 77.5751 20.5746L76.9067 20.0769L76.409 20.7452C76.3385 20.8399 76.2473 20.8954 76.1356 20.9118C76.0238 20.9281 75.9206 20.901 75.8259 20.8305L75.1576 20.3328L74.6598 21.0011L76.6649 22.4944C76.7596 22.5649 76.8151 22.656 76.8314 22.7678C76.8478 22.8795 76.8207 22.9828 76.7502 23.0774L76.0035 24.08L76.3377 24.3288C76.4825 24.4367 76.5813 24.5773 76.6339 24.7508C76.6866 24.9242 76.6834 25.0971 76.6242 25.2695Z" fill="#29B6F6"/>
</g>
<mask id="mask7_360_2277" style="mask-type:alpha" maskUnits="userSpaceOnUse" x="59" y="79" width="14" height="14">
<rect x="63.0508" y="79" width="10" height="10" transform="rotate(23.8973 63.0508 79)" fill="#D9D9D9"/>
</mask>
<g mask="url(#mask7_360_2277)">
<path d="M61.7247 87.9831L63.5295 85.5812L62.2509 82.8614L65.0992 83.8386L67.2841 81.7874L67.2325 84.7838L69.8698 86.2372L66.9961 87.1172L66.4294 90.0677L64.7058 87.6064L61.7247 87.9831Z" fill="#29B6F6"/>
</g>
<mask id="mask8_360_2277" style="mask-type:alpha" maskUnits="userSpaceOnUse" x="38" y="6" width="28" height="28">
<rect x="38" y="17.9187" width="20" height="20" transform="rotate(-36.5792 38 17.9187)" fill="#D9D9D9"/>
</mask>
<g mask="url(#mask8_360_2277)">
<path d="M59.4076 23.7982L56.1142 23.3106L56.3558 21.6785L58.0171 21.9244L58.565 18.223L60.1972 18.4646L59.4076 23.7982ZM50.4361 30.4819L49.4428 29.1435L55.4656 24.674L56.4588 26.0124L50.4361 30.4819ZM48.4496 27.8051L47.4564 26.4667L53.4792 21.9972L54.4724 23.3356L48.4496 27.8051ZM46.4632 25.1284L45.47 23.79L57.5155 14.851L58.5087 16.1894L46.4632 25.1284ZM44.4767 22.4516L43.4835 21.1132L55.529 12.1742L56.5222 13.5126L44.4767 22.4516ZM42.4903 19.7748L41.4971 18.4364L53.5426 9.49741L54.5358 10.8358L42.4903 19.7748Z" fill="#29B6F6"/>
</g>
<mask id="mask9_360_2277" style="mask-type:alpha" maskUnits="userSpaceOnUse" x="81" y="18" width="24" height="24">
<rect x="84.7363" y="18" width="20" height="20" transform="rotate(10.7671 84.7363 18)" fill="#D9D9D9"/>
</mask>
<g mask="url(#mask9_360_2277)">
<path d="M89.6356 32.716L92.3066 31.7183L94.4248 33.6268L94.308 30.7841L96.7868 29.3469L94.0257 28.5885L93.4314 25.8034L91.8562 28.176L89.0095 27.8679L90.7877 30.1146L89.6356 32.716ZM90.9327 38.943L88.7039 35.7199L84.8971 34.9959L85.621 31.1892L83.441 27.9329L86.6641 25.7041L87.388 21.8973L91.1948 22.6213L94.4511 20.4412L96.6798 23.6643L100.487 24.3882L99.7627 28.195L101.943 31.4513L98.7196 33.6801L97.9957 37.4868L94.1889 36.7629L90.9327 38.943Z" fill="#29B6F6"/>
</g>
<mask id="mask10_360_2277" style="mask-type:alpha" maskUnits="userSpaceOnUse" x="86" y="41" width="16" height="16">
<rect x="90.2295" y="41" width="12" height="12" transform="rotate(20.6384 90.2295 41)" fill="#D9D9D9"/>
</mask>
<g mask="url(#mask10_360_2277)">
<path d="M90.2888 53.0438L89.9637 51.2117L88.4202 50.2029L89.2361 48.5333L88.5831 46.7914L90.223 45.913L90.7113 44.12L92.5367 44.3802L93.9897 43.2177L95.3251 44.4953L97.1715 44.4161L97.4966 46.2482L99.0401 47.257L98.2243 48.9266L98.8772 50.6685L97.2373 51.5469L96.749 53.3399L94.9236 53.0797L93.4706 54.2422L92.1352 52.9646L90.2888 53.0438ZM92.6132 50.206L96.2526 48.558L95.8531 47.6328L93.1155 48.8724L92.4796 47.5109L91.5778 47.9193L92.6132 50.206Z" fill="#29B6F6"/>
</g>
</g>
<rect x="11" y="11" width="98" height="98" rx="49" stroke="#F2F2F2" stroke-width="2"/>
</g>
<defs>
<filter id="filter0_d_360_2277" x="0" y="0" width="120" height="120" filterUnits="userSpaceOnUse" color-interpolation-filters="sRGB">
<feFlood flood-opacity="0" result="BackgroundImageFix"/>
<feColorMatrix in="SourceAlpha" type="matrix" values="0 0 0 0 0 0 0 0 0 0 0 0 0 0 0 0 0 0 127 0" result="hardAlpha"/>
<feOffset/>
<feGaussianBlur stdDeviation="5"/>
<feComposite in2="hardAlpha" operator="out"/>
<feColorMatrix type="matrix" values="0 0 0 0 0 0 0 0 0 0 0 0 0 0 0 0 0 0 0.25 0"/>
<feBlend mode="normal" in2="BackgroundImageFix" result="effect1_dropShadow_360_2277"/>
<feBlend mode="normal" in="SourceGraphic" in2="effect1_dropShadow_360_2277" result="shape"/>
</filter>
<clipPath id="clip0_360_2277">
<rect x="10" y="10" width="100" height="100" rx="50" fill="white"/>
</clipPath>
</defs>
</svg>
